# xmcd
#
# Track frame offsets:
#	150
#	16487
#	30387
#	52380
#	82732
#	86857
#	112747
#	136747
#	152705
#	168522
#	177342
#	193385
#	206117
#	226055
#	276572
#
# Disc length: 4199 seconds
#
# Revision: 0
# Processed by: cddbd v1.4PL0 Copyright (c) Steve Scherf et al.
# Submitted via: EasyCDDAExtractor 5.0.2.1
#
DISCID=cc10650f
DTITLE=Kid Creole - Kid Creole and the coconuts
DYEAR=1900
DGENRE=Pop/Funk
TTITLE0=Oh ! what a night
TTITLE1=Love train
TTITLE2=Stool Pigeon
TTITLE3=Don't take my coconuts
TTITLE4=Midsummer madness
TTITLE5=(No more) Casual Sex
TTITLE6=My male curiosity
TTITLE7=If you wanna be happy
TTITLE8=I love girls
TTITLE9=The good ol' day
TTITLE10=I'm a wonderful thing baby
TTITLE11=Thank you for letting me be myself
TTITLE12=Play that funky music
TTITLE13=Annie. I'm not your daddy
TTITLE14=It's automatic
EXTD=
EXTT0=
EXTT1=
EXTT2=
EXTT3=
EXTT4=
EXTT5=
EXTT6=
EXTT7=
EXTT8=
EXTT9=
EXTT10=
EXTT11=
EXTT12=
EXTT13=
EXTT14=
PLAYORDER=
